<?xml version="1.0" encoding="UTF-8" standalone="no"?>
<!-- Created with Inkscape (http://www.inkscape.org/) -->

<svg
   xmlns:svg="http://www.w3.org/2000/svg"
   xmlns="http://www.w3.org/2000/svg"
   version="1.1"
   width="692.13501"
   height="460.48199"
   viewBox="0 0 692.135 460.482"
   id="CRIMINAL-MINDS-Logo"
   xml:space="preserve"><defs
     id="defs117" /><rect
     width="692.13501"
     height="460.48199"
     x="0"
     y="0"
     id="rect3" /><g
     id="g5"><path
       d="m 154.627,165.585 c 0,14.626 -11.802,27.426 -26.927,27.426 -12.965,0 -27.925,-6.316 -27.925,-27.925 V 99.928 c 0,-15.458 11.137,-27.26 27.593,-27.26 15.624,0 27.26,11.801 27.26,28.257 v 6.649 h -16.955 v -5.651 c 0,-6.649 -3.989,-12.3 -10.472,-12.3 -8.477,0 -10.471,5.817 -10.471,13.796 v 60.503 c 0,6.815 2.659,12.134 10.305,12.134 4.654,0 10.638,-2.659 10.638,-11.967 v -5.818 h 16.955 v 7.314 z"
       id="path7"
       style="fill:#912718" /><path
       d="m 168.419,73.666 h 27.261 c 20.112,0 29.919,11.801 29.919,34.74 0,13.63 -3.823,23.603 -14.627,29.587 l 18.284,54.021 h -17.951 l -15.791,-50.53 h -10.139 v 50.53 H 168.42 V 73.666 z m 16.955,52.857 h 9.641 c 11.801,0 13.63,-6.649 13.63,-18.451 0,-11.968 -1.995,-18.45 -14.461,-18.45 h -8.81 v 36.901 z"
       id="path9"
       style="fill:#912718" /><path
       d="m 239.723,73.666 h 16.954 V 192.014 H 239.723 V 73.666 z"
       id="path11"
       style="fill:#912718" /><path
       d="m 273.13,73.666 h 16.29 l 21.774,62.665 h 0.332 l 21.609,-62.665 h 16.455 v 118.348 h -16.954 v -71.973 h -0.332 l -16.788,50.863 h -8.478 l -16.622,-50.863 h -0.333 v 71.973 H 273.13 V 73.666 z"
       id="path13"
       style="fill:#912718" /><path
       d="m 366.042,73.666 h 16.954 V 192.014 H 366.042 V 73.666 z"
       id="path15"
       style="fill:#912718" /><path
       d="m 398.785,73.666 h 16.289 l 25.599,71.308 h 0.331 V 73.666 h 16.954 v 118.348 h -15.956 l -25.931,-71.142 h -0.332 v 71.142 H 398.785 V 73.666 z"
       id="path17"
       style="fill:#912718" /><path
       d="m 492.026,73.666 h 14.129 l 26.429,118.348 H 515.63 l -4.986,-25.431 H 487.54 l -4.986,25.431 H 465.6 L 492.026,73.666 z m 7.147,34.074 h -0.332 l -8.312,42.885 h 16.954 l -8.31,-42.885 z"
       id="path19"
       style="fill:#912718" /><path
       d="m 540.891,73.666 h 16.954 V 175.06 h 33.575 v 16.954 H 540.891 V 73.666 z"
       id="path21"
       style="fill:#912718" /></g><g
     id="g23"><path
       d="m 104.725,209.02 h 16.288 l 21.772,62.658 h 0.332 l 21.607,-62.658 h 16.454 v 118.335 h -16.953 v -71.966 h -0.333 l -16.787,50.858 h -8.476 l -16.62,-50.858 h -0.332 v 71.966 H 104.724 V 209.02 z"
       id="path25"
       style="fill:#ffffff" /><path
       d="m 197.636,209.02 h 16.952 V 327.355 H 197.636 V 209.02 z"
       id="path27"
       style="fill:#ffffff" /><path
       d="m 230.377,209.02 h 16.288 l 25.595,71.301 h 0.333 V 209.02 h 16.953 V 327.355 H 273.59 l -25.927,-71.134 h -0.333 v 71.134 H 230.377 V 209.02 z"
       id="path29"
       style="fill:#ffffff" /><path
       d="m 304.836,209.02 h 25.096 c 19.114,0 29.751,11.468 29.751,30.581 v 55.346 c 0,21.938 -11.303,32.409 -31.247,32.409 h -23.6 V 209.02 z m 16.953,102.379 h 7.811 c 9.474,0 13.132,-4.652 13.132,-14.792 v -57.006 c 0,-9.308 -3.159,-14.626 -13.132,-14.626 h -7.811 v 86.424 z"
       id="path31"
       style="fill:#ffffff" /><path
       d="m 430.488,243.092 h -16.954 v -3.823 c 0,-7.812 -3.323,-14.294 -11.967,-14.294 -9.307,0 -11.467,7.48 -11.467,15.292 0,9.141 0.83,12.298 9.641,15.789 l 12.963,5.152 c 14.958,5.651 17.784,15.125 17.784,32.41 0,19.944 -7.314,34.734 -29.251,34.734 -16.455,0 -28.921,-12.131 -28.921,-28.086 v -6.317 h 16.954 v 5.318 c 0,6.151 3.323,12.133 11.967,12.133 11.467,0 12.297,-6.814 12.297,-17.617 0,-12.631 -1.496,-14.626 -9.805,-17.95 l -12.133,-4.986 c -14.626,-5.984 -18.448,-15.624 -18.448,-30.415 0,-17.95 9.638,-32.41 29.085,-32.41 16.952,0 28.255,13.628 28.255,26.758 v 8.312 z"
       id="path33"
       style="fill:#ffffff" /></g><g
     id="g35"><g
       id="g37"><path
         d="M 441.139,208.551 H 591.42 V 327.356 H 441.139 V 208.551 z"
         id="path39"
         style="fill:#912718" /></g></g><g
     id="g41"><path
       d="m 103.43,344.688 h 8.225 c 1.38,0 3.141,0.056 4.176,1.362 0.544,0.707 0.636,1.452 0.636,1.979 0,1.252 -0.581,1.978 -1.162,2.342 -0.127,0.071 -0.599,0.29 -0.636,0.29 0.563,0.183 2.433,0.816 2.433,3.268 0,0.999 -0.381,1.962 -1.144,2.596 -1.162,0.98 -2.923,0.98 -4.303,0.98 h -8.225 v -12.817 z m 1.816,1.489 v 3.939 h 6.699 c 0.563,0 1.217,0 1.726,-0.29 0.635,-0.345 0.908,-1.054 0.908,-1.672 0,-0.762 -0.382,-1.271 -0.835,-1.578 -0.636,-0.399 -1.435,-0.399 -2.106,-0.399 h -6.392 z m 0,5.41 v 4.429 h 6.954 c 0.763,0 1.634,-0.034 2.324,-0.615 0.671,-0.582 0.689,-1.344 0.689,-1.617 0,-1.069 -0.617,-1.542 -0.762,-1.67 -0.654,-0.508 -1.507,-0.526 -2.251,-0.526 h -6.954 z"
       id="path43"
       style="fill:#c8534b" /><path
       d="m 121.365,344.688 h 11.837 v 1.579 H 123.18 v 3.831 h 9.75 v 1.508 h -9.75 v 4.321 h 10.476 v 1.578 h -12.292 v -12.817 z"
       id="path45"
       style="fill:#c8534b" /><path
       d="m 137.411,344.67 h 1.833 v 5.247 h 9.822 v -5.247 h 1.834 v 12.835 h -1.834 v -6.064 h -9.822 v 6.064 h -1.833 V 344.67 z"
       id="path47"
       style="fill:#c8534b" /><path
       d="m 160.048,344.67 h 1.924 l 6.573,12.835 h -2.088 l -1.562,-3.158 h -7.879 l -1.561,3.158 h -2.034 l 6.627,-12.835 z m 1.362,2.796 c -0.091,-0.219 -0.2,-0.436 -0.29,-0.654 -0.055,-0.162 -0.109,-0.326 -0.146,-0.49 -0.055,0.164 -0.109,0.347 -0.182,0.526 -0.091,0.237 -0.2,0.454 -0.309,0.691 l -2.705,5.318 h 6.336 l -2.704,-5.391 z"
       id="path49"
       style="fill:#c8534b" /><path
       d="m 180.348,344.688 h 1.997 l -6.046,12.817 h -1.833 l -6.155,-12.817 h 2.016 l 4.466,9.477 c 0.327,0.673 0.399,0.873 0.617,1.599 0.127,-0.637 0.181,-0.78 0.472,-1.398 l 4.466,-9.678 z"
       id="path51"
       style="fill:#c8534b" /><path
       d="m 184.738,344.688 h 1.87 v 12.817 h -1.87 v -12.817 z"
       id="path53"
       style="fill:#c8534b" /><path
       d="m 205.889,351.279 c 0,4.374 -3.595,6.572 -7.716,6.572 -1.87,0 -3.758,-0.347 -5.266,-1.416 -1.252,-0.874 -2.596,-2.47 -2.596,-5.175 0,-4.739 3.904,-6.883 7.735,-6.883 4.484,0.019 7.843,2.653 7.843,6.902 z m -13.762,-0.128 c 0,0.999 0.254,2.287 1.125,3.268 1.198,1.398 3.068,1.853 4.92,1.853 4.739,0 5.882,-2.997 5.882,-5.175 0,-3.378 -2.705,-5.248 -6.209,-5.156 -2.668,0.072 -5.718,1.415 -5.718,5.21 z"
       id="path55"
       style="fill:#c8534b" /><path
       d="m 209.662,344.688 h 8.715 c 1.125,0.019 2.487,0.037 3.595,1.036 0.417,0.362 1.144,1.197 1.144,2.741 0,3.067 -2.596,3.484 -3.449,3.631 l 4.72,5.409 h -2.378 l -4.339,-5.12 h -6.191 v 5.12 h -1.815 v -12.817 z m 1.796,1.543 v 4.648 h 6.337 c 0.999,0 2.269,-0.019 2.996,-0.98 0.327,-0.418 0.436,-0.908 0.436,-1.361 0,-0.491 -0.127,-0.981 -0.381,-1.364 -0.581,-0.926 -1.507,-0.926 -2.342,-0.942 h -7.046 z"
       id="path57"
       style="fill:#c8534b" /><path
       d="m 231.917,344.67 h 1.924 l 6.573,12.835 h -2.088 l -1.562,-3.158 h -7.879 l -1.562,3.158 h -2.034 l 6.628,-12.835 z m 1.362,2.796 c -0.091,-0.219 -0.2,-0.436 -0.291,-0.654 -0.055,-0.162 -0.109,-0.326 -0.145,-0.49 -0.055,0.164 -0.109,0.347 -0.182,0.526 -0.091,0.237 -0.2,0.454 -0.309,0.691 l -2.705,5.318 h 6.336 l -2.704,-5.391 z"
       id="path59"
       style="fill:#c8534b" /><path
       d="m 242.862,344.688 h 1.815 v 11.258 h 8.497 v 1.56 h -10.312 v -12.818 z"
       id="path61"
       style="fill:#c8534b" /><path
       d="m 268.295,344.67 h 1.924 l 6.573,12.835 h -2.088 l -1.562,-3.158 h -7.88 l -1.561,3.158 h -2.034 l 6.628,-12.835 z m 1.361,2.796 c -0.09,-0.219 -0.199,-0.436 -0.29,-0.654 -0.055,-0.162 -0.109,-0.326 -0.146,-0.49 -0.055,0.164 -0.109,0.347 -0.181,0.526 -0.091,0.237 -0.2,0.454 -0.309,0.691 l -2.705,5.318 h 6.336 l -2.705,-5.391 z"
       id="path63"
       style="fill:#c8534b" /><path
       d="m 281.11,344.688 8.642,9.169 c 0.618,0.654 0.745,0.798 1.362,1.562 -0.091,-0.907 -0.091,-1.071 -0.109,-1.888 v -8.843 h 1.743 v 12.817 h -1.779 l -9.078,-9.604 c -0.472,-0.527 -0.617,-0.709 -0.998,-1.182 0.072,0.892 0.09,1.146 0.09,2.217 v 8.568 h -1.743 v -12.817 h 1.87 z"
       id="path65"
       style="fill:#c8534b" /><path
       d="m 301.876,344.67 h 1.924 l 6.573,12.835 h -2.088 l -1.562,-3.158 h -7.879 l -1.562,3.158 h -2.033 l 6.627,-12.835 z m 1.362,2.796 c -0.091,-0.219 -0.2,-0.436 -0.291,-0.654 -0.055,-0.162 -0.109,-0.326 -0.145,-0.49 -0.055,0.164 -0.109,0.347 -0.182,0.526 -0.091,0.237 -0.2,0.454 -0.309,0.691 l -2.705,5.318 h 6.336 l -2.704,-5.391 z"
       id="path67"
       style="fill:#c8534b" /><path
       d="m 312.821,344.688 h 1.815 v 11.258 h 8.497 v 1.56 h -10.312 v -12.818 z"
       id="path69"
       style="fill:#c8534b" /><path
       d="m 323.264,344.688 4.449,5.593 c 0.29,0.381 0.362,0.49 0.525,0.871 0.164,-0.362 0.218,-0.436 0.49,-0.78 l 4.558,-5.684 h 2.342 l -6.5,7.861 v 4.956 h -1.798 v -4.992 l -6.39,-7.825 h 2.324 z"
       id="path71"
       style="fill:#c8534b" /><path
       d="m 337.826,354.219 c 0.2,0.237 0.4,0.454 0.891,0.782 1.397,0.963 3.104,1.252 4.792,1.252 2.814,0 4.357,-1.035 4.357,-2.596 0,-1.78 -2.015,-1.942 -4.557,-2.162 -3.213,-0.271 -4.322,-0.362 -5.301,-1.252 -0.781,-0.728 -0.909,-1.544 -0.909,-2.144 0,-3.648 4.831,-3.738 6.011,-3.738 1.797,0 3.612,0.29 5.102,1.289 0.636,0.436 0.926,0.78 1.289,1.288 l -1.652,0.673 c -0.273,-0.273 -0.436,-0.453 -0.745,-0.673 -1.144,-0.816 -2.56,-1.071 -3.958,-1.071 -1.034,0 -2.324,0.146 -3.085,0.526 -0.89,0.436 -1.144,1.091 -1.144,1.617 0,0.381 0.145,0.726 0.381,0.98 0.436,0.507 1.107,0.616 2.306,0.744 1.162,0.127 2.306,0.2 3.467,0.326 0.545,0.055 1.107,0.127 1.652,0.255 1.38,0.326 2.941,1.216 2.941,3.323 0,0.524 -0.091,1.343 -0.653,2.142 -0.998,1.416 -2.978,2.034 -5.629,2.034 -1.053,0 -2.396,-0.146 -3.304,-0.384 -2.633,-0.651 -3.559,-1.995 -3.921,-2.521 l 1.669,-0.69 z"
       id="path73"
       style="fill:#c8534b" /><path
       d="m 353.346,344.688 h 1.869 v 12.817 h -1.869 v -12.817 z"
       id="path75"
       style="fill:#c8534b" /><path
       d="m 360.062,354.219 c 0.199,0.237 0.4,0.454 0.891,0.782 1.396,0.963 3.104,1.252 4.793,1.252 2.813,0 4.356,-1.035 4.356,-2.596 0,-1.78 -2.015,-1.942 -4.557,-2.162 -3.213,-0.271 -4.321,-0.362 -5.301,-1.252 -0.781,-0.728 -0.909,-1.544 -0.909,-2.144 0,-3.648 4.83,-3.738 6.011,-3.738 1.797,0 3.612,0.29 5.102,1.289 0.635,0.436 0.926,0.78 1.289,1.288 l -1.652,0.673 c -0.272,-0.273 -0.436,-0.453 -0.745,-0.673 -1.144,-0.816 -2.56,-1.071 -3.958,-1.071 -1.034,0 -2.324,0.146 -3.086,0.526 -0.89,0.436 -1.144,1.091 -1.144,1.617 0,0.381 0.145,0.726 0.381,0.98 0.436,0.507 1.107,0.616 2.306,0.744 1.162,0.127 2.306,0.2 3.468,0.326 0.545,0.055 1.107,0.127 1.652,0.255 1.38,0.326 2.941,1.216 2.941,3.323 0,0.524 -0.091,1.343 -0.654,2.142 -0.997,1.416 -2.977,2.034 -5.628,2.034 -1.053,0 -2.396,-0.146 -3.304,-0.384 -2.633,-0.651 -3.559,-1.995 -3.922,-2.521 l 1.67,-0.69 z"
       id="path77"
       style="fill:#c8534b" /><path
       d="m 384.768,344.688 v 7.606 c 0.017,1.489 0.163,2.36 1.271,3.069 0.472,0.309 1.489,0.871 3.522,0.871 1.234,0 2.323,-0.236 3.032,-0.562 1.651,-0.744 1.651,-2.069 1.651,-3.141 v -7.844 h 1.834 v 7.697 c 0,1.289 0,3.052 -1.961,4.322 -0.89,0.581 -2.324,1.108 -4.575,1.108 -1.671,0 -3.359,-0.273 -4.739,-1.236 -1.815,-1.252 -1.87,-2.905 -1.87,-4.355 v -7.536 h 1.835 z"
       id="path79"
       style="fill:#c8534b" /><path
       d="m 402.756,344.688 8.643,9.169 c 0.617,0.654 0.744,0.798 1.361,1.562 -0.09,-0.907 -0.09,-1.071 -0.108,-1.888 v -8.843 h 1.742 v 12.817 h -1.778 l -9.078,-9.604 c -0.472,-0.527 -0.617,-0.709 -0.999,-1.182 0.073,0.892 0.091,1.146 0.091,2.217 v 8.568 h -1.743 v -12.817 h 1.869 z"
       id="path81"
       style="fill:#c8534b" /><path
       d="m 419.167,344.688 h 1.869 v 12.817 h -1.869 v -12.817 z"
       id="path83"
       style="fill:#c8534b" /><path
       d="m 423.741,344.688 h 12.291 v 1.526 h -5.246 v 11.291 h -1.816 v -11.291 h -5.229 v -1.526 z"
       id="path85"
       style="fill:#c8534b" /></g><g
     id="g87"><g
       id="g89"><path
         d="m 106.489,383.655 v 12.693 h -3.594 v -27.032 h 17.321 v 3.211 h -13.727 v 7.991 h 12.771 v 3.137 h -12.771 z"
         id="path91"
         style="fill:#ffffff" /><path
         d="m 126.298,369.355 h 11.126 c 1.568,0 2.523,0 3.632,0.191 2.715,0.533 5.965,2.522 5.965,6.728 0,3.289 -2.104,5.239 -4.13,5.85 1.033,0.309 4.971,1.492 4.971,6.77 0,1.3 -0.191,4.167 -3.059,6.041 -2.103,1.375 -3.976,1.375 -7.953,1.414 h -10.553 v -26.994 z m 3.403,3.172 v 8.184 h 5.621 c 4.091,0 6.003,0 7.227,-1.836 0.497,-0.726 0.688,-1.606 0.688,-2.409 0,-3.86 -3.709,-3.938 -5.162,-3.938 h -8.374 z m 0,11.242 v 9.408 h 7.992 c 1.912,-0.039 2.562,-0.039 3.327,-0.23 2.294,-0.536 3.135,-2.217 3.135,-4.319 0,-3.136 -2.294,-4.169 -2.6,-4.322 -1.07,-0.458 -1.912,-0.497 -5.238,-0.536 h -6.616 z"
         id="path93"
         style="fill:#ffffff" /><path
         d="m 159.376,369.355 v 26.993 h -3.633 v -26.993 h 3.633 z"
         id="path95"
         style="fill:#ffffff" /></g></g><g
     id="g97"><path
       d="m 479.886,356.979 c -0.635,0.273 -1.997,0.854 -4.429,0.854 -4.703,0 -7.953,-2.579 -7.953,-6.536 0,-1.361 0.363,-2.813 1.234,-3.959 0.381,-0.509 0.98,-1.106 1.688,-1.578 1.488,-0.999 3.286,-1.382 5.084,-1.382 4.576,0 7.934,2.726 7.934,6.719 -0.018,2.705 -1.308,3.993 -2.124,4.812 l 2.507,1.435 -0.927,1.325 -3.014,-1.69 z m -9.549,-9.004 c -0.582,0.762 -0.999,1.888 -0.999,3.177 0,3.231 2.342,5.156 6.155,5.156 5.138,0 6.118,-3.25 6.118,-5.156 0,-3.25 -2.487,-5.321 -6.337,-5.229 -2.068,0.054 -3.921,0.708 -4.937,2.052 z"
       id="path99"
       style="fill:#ffffff" /><path
       d="m 489.034,344.688 v 7.606 c 0.019,1.489 0.163,2.36 1.271,3.069 0.472,0.309 1.489,0.871 3.522,0.871 1.235,0 2.324,-0.236 3.032,-0.562 1.652,-0.744 1.652,-2.069 1.652,-3.141 v -7.844 h 1.833 v 7.697 c 0,1.289 0,3.052 -1.96,4.322 -0.891,0.581 -2.324,1.108 -4.576,1.108 -1.67,0 -3.358,-0.273 -4.737,-1.236 -1.817,-1.252 -1.87,-2.905 -1.87,-4.355 v -7.536 h 1.833 z"
       id="path101"
       style="fill:#ffffff" /><path
       d="m 509.115,344.67 h 1.925 l 6.573,12.835 h -2.09 l -1.561,-3.158 h -7.88 l -1.561,3.158 h -2.034 l 6.628,-12.835 z m 1.361,2.796 c -0.091,-0.219 -0.199,-0.436 -0.289,-0.654 -0.055,-0.162 -0.109,-0.326 -0.146,-0.49 -0.055,0.164 -0.109,0.347 -0.181,0.526 -0.092,0.237 -0.2,0.454 -0.31,0.691 l -2.705,5.318 h 6.336 l -2.705,-5.391 z"
       id="path103"
       style="fill:#ffffff" /><path
       d="m 521.929,344.688 8.642,9.169 c 0.618,0.654 0.746,0.798 1.363,1.562 -0.092,-0.907 -0.092,-1.071 -0.11,-1.888 v -8.843 h 1.744 v 12.817 h -1.779 l -9.079,-9.604 c -0.472,-0.527 -0.616,-0.709 -0.997,-1.182 0.071,0.892 0.09,1.146 0.09,2.217 v 8.568 h -1.742 v -12.817 h 1.868 z"
       id="path105"
       style="fill:#ffffff" /><path
       d="m 536.324,344.688 h 12.292 v 1.526 h -5.248 v 11.291 h -1.815 v -11.291 h -5.229 v -1.526 z"
       id="path107"
       style="fill:#ffffff" /><path
       d="m 551.336,344.688 h 1.87 v 12.817 h -1.87 v -12.817 z"
       id="path109"
       style="fill:#ffffff" /><path
       d="m 572.141,353.983 c -0.489,0.871 -0.998,1.743 -2.27,2.541 -1.579,0.999 -3.613,1.291 -5.156,1.291 -5.21,0 -7.789,-2.997 -7.789,-6.811 0,-3.03 1.507,-4.429 2.378,-5.083 0.546,-0.436 2.071,-1.615 5.357,-1.615 0.926,0 3.159,0.126 4.883,1.198 1.362,0.853 1.998,1.925 2.343,2.506 l -1.962,0.436 c -0.289,-0.509 -0.598,-1.054 -1.396,-1.58 -0.781,-0.509 -2.161,-0.963 -3.795,-0.963 -3.051,0 -5.883,1.435 -5.883,5.047 0,1.273 0.363,2.58 1.325,3.651 0.872,0.89 2.36,1.633 4.666,1.633 1.979,0.019 3.305,-0.49 4.086,-1.108 0.689,-0.508 1.106,-1.16 1.289,-1.541 l 1.924,0.398 z"
       id="path111"
       style="fill:#ffffff" /><path
       d="m 590.42,351.279 c 0,4.374 -3.596,6.572 -7.717,6.572 -1.87,0 -3.758,-0.347 -5.265,-1.416 -1.253,-0.874 -2.597,-2.47 -2.597,-5.175 0,-4.739 3.905,-6.883 7.735,-6.883 4.486,0.019 7.844,2.653 7.844,6.902 z m -13.762,-0.128 c 0,0.999 0.256,2.287 1.127,3.268 1.197,1.398 3.067,1.853 4.919,1.853 4.739,0 5.884,-2.997 5.884,-5.175 0,-3.378 -2.705,-5.248 -6.21,-5.156 -2.669,0.072 -5.72,1.415 -5.72,5.21 z"
       id="path113"
       style="fill:#ffffff" /></g></svg>